<svg width="144" height="64" viewBox="0 0 144 64" fill="none" xmlns="http://www.w3.org/2000/svg">
<g filter="url(#filter0_d_156_999)">
<rect x="4" width="136" height="56" rx="10" fill="white"/>
<path d="M39.7614 35V20.4545H41.5227V33.4375H48.2841V35H39.7614ZM55.2159 35.2273C54.2311 35.2273 53.367 34.9929 52.6236 34.5241C51.8849 34.0554 51.3073 33.3996 50.8906 32.5568C50.4787 31.714 50.2727 30.7292 50.2727 29.6023C50.2727 28.4659 50.4787 27.474 50.8906 26.6264C51.3073 25.7789 51.8849 25.1207 52.6236 24.652C53.367 24.1832 54.2311 23.9489 55.2159 23.9489C56.2008 23.9489 57.0625 24.1832 57.8011 24.652C58.5445 25.1207 59.1222 25.7789 59.5341 26.6264C59.9508 27.474 60.1591 28.4659 60.1591 29.6023C60.1591 30.7292 59.9508 31.714 59.5341 32.5568C59.1222 33.3996 58.5445 34.0554 57.8011 34.5241C57.0625 34.9929 56.2008 35.2273 55.2159 35.2273ZM55.2159 33.7216C55.964 33.7216 56.5795 33.5298 57.0625 33.1463C57.5455 32.7628 57.9029 32.2585 58.1349 31.6335C58.367 31.0085 58.483 30.3314 58.483 29.6023C58.483 28.8731 58.367 28.1937 58.1349 27.5639C57.9029 26.9342 57.5455 26.4252 57.0625 26.0369C56.5795 25.6487 55.964 25.4545 55.2159 25.4545C54.4678 25.4545 53.8523 25.6487 53.3693 26.0369C52.8864 26.4252 52.5289 26.9342 52.2969 27.5639C52.0649 28.1937 51.9489 28.8731 51.9489 29.6023C51.9489 30.3314 52.0649 31.0085 52.2969 31.6335C52.5289 32.2585 52.8864 32.7628 53.3693 33.1463C53.8523 33.5298 54.4678 33.7216 55.2159 33.7216ZM64.8182 35L61.4943 24.0909H63.2557L65.6136 32.4432H65.7273L68.0568 24.0909H69.8466L72.1477 32.4148H72.2614L74.6193 24.0909H76.3807L73.0568 35H71.4091L69.0227 26.6193H68.8523L66.4659 35H64.8182Z" fill="black"/>
<path d="M96 29.5061C95.7654 29.5065 95.5369 29.4317 95.348 29.2926L86.4449 22.7229C86.3291 22.6373 86.2312 22.5298 86.157 22.4065C86.0827 22.2831 86.0335 22.1464 86.0121 22.004C85.969 21.7166 86.0419 21.4237 86.2148 21.1899C86.3877 20.9562 86.6465 20.8006 86.9342 20.7575C87.2219 20.7144 87.5149 20.7872 87.7489 20.96L96 27.0425L104.251 20.96C104.367 20.8744 104.499 20.8125 104.638 20.7778C104.778 20.743 104.923 20.7361 105.066 20.7575C105.208 20.7788 105.345 20.828 105.469 20.9022C105.592 20.9764 105.7 21.0742 105.785 21.1899C105.871 21.3057 105.933 21.4372 105.968 21.5768C106.002 21.7165 106.009 21.8617 105.988 22.004C105.966 22.1464 105.917 22.2831 105.843 22.4065C105.769 22.5298 105.671 22.6373 105.555 22.7229L96.652 29.2926C96.4631 29.4317 96.2346 29.5065 96 29.5061Z" fill="#7AE229"/>
<path d="M96 35.2547C95.7654 35.2551 95.5369 35.1802 95.348 35.0412L86.4449 28.4714C86.211 28.2986 86.0553 28.0401 86.0121 27.7526C85.969 27.4651 86.0419 27.1723 86.2148 26.9385C86.3877 26.7047 86.6465 26.5491 86.9342 26.506C87.2219 26.4629 87.5149 26.5358 87.7489 26.7085L96 32.791L104.251 26.7085C104.485 26.5358 104.778 26.4629 105.066 26.506C105.354 26.5491 105.612 26.7047 105.785 26.9385C105.958 27.1723 106.031 27.4651 105.988 27.7526C105.945 28.0401 105.789 28.2986 105.555 28.4714L96.652 35.0412C96.4631 35.1802 96.2346 35.2551 96 35.2547Z" fill="#7AE229"/>
</g>
<defs>
<filter id="filter0_d_156_999" x="0" y="0" width="144" height="64" filterUnits="userSpaceOnUse" color-interpolation-filters="sRGB">
<feFlood flood-opacity="0" result="BackgroundImageFix"/>
<feColorMatrix in="SourceAlpha" type="matrix" values="0 0 0 0 0 0 0 0 0 0 0 0 0 0 0 0 0 0 127 0" result="hardAlpha"/>
<feOffset dy="4"/>
<feGaussianBlur stdDeviation="2"/>
<feComposite in2="hardAlpha" operator="out"/>
<feColorMatrix type="matrix" values="0 0 0 0 0 0 0 0 0 0 0 0 0 0 0 0 0 0 0.25 0"/>
<feBlend mode="normal" in2="BackgroundImageFix" result="effect1_dropShadow_156_999"/>
<feBlend mode="normal" in="SourceGraphic" in2="effect1_dropShadow_156_999" result="shape"/>
</filter>
</defs>
</svg>
